<?xml version="1.0" encoding="UTF-8"?>
<!-- Generator: Adobe Illustrator 24.0.1, SVG Export Plug-In . SVG Version: 6.00 Build 0)  -->
<svg xmlns="http://www.w3.org/2000/svg" xmlns:xlink="http://www.w3.org/1999/xlink" version="1.1" id="Icon_x5F_contour" x="0px" y="0px" viewBox="0 0 192 192" style="enable-background:new 0 0 192 192;" xml:space="preserve">
<path d="M134.82861,62.82861L101.65723,96l33.17139,33.17139l-5.65723,5.65723L96,101.65723l-33.17139,33.17139l-5.65723-5.65723  L90.34277,96L57.17139,62.82861l5.65723-5.65723L96,90.34277l33.17139-33.17139L134.82861,62.82861z M176,96  c0,44.1123-35.8877,80-80,80s-80-35.8877-80-80s35.8877-80,80-80S176,51.8877,176,96z M168,96c0-39.70117-32.29883-72-72-72  S24,56.29883,24,96s32.29883,72,72,72S168,135.70117,168,96z" style="fill: #9e2896;"/>
<g>
</g>
<g>
</g>
<g>
</g>
<g>
</g>
<g>
</g>
<g>
</g>
<g>
</g>
<g>
</g>
<g>
</g>
<g>
</g>
<g>
</g>
<g>
</g>
<g>
</g>
<g>
</g>
<g>
</g>
</svg>
