<svg width="450" height="549" viewBox="0 0 450 549" fill="none" xmlns="http://www.w3.org/2000/svg">
<g clip-path="url(#clip0_70_1075)">
<mask id="mask0_70_1075" style="mask-type:alpha" maskUnits="userSpaceOnUse" x="0" y="0" width="450" height="549">
<rect x="0.5" y="0.5" width="449" height="548" fill="white" stroke="black"/>
</mask>
<g mask="url(#mask0_70_1075)">
<path d="M3243 -369H-115V1054H3243V-369Z" fill="url(#paint0_linear_70_1075)"/>
<path d="M428.198 1054H842.224L698.072 342.509L428.198 1054Z" fill="url(#paint1_linear_70_1075)"/>
<path d="M424.067 -369H143.357V71.4123L302.384 342.506L143.357 613.6V1054H428.198L326.807 342.506L424.067 -369Z" fill="#AF1917"/>
<path d="M857.425 -369H424.067L698.072 342.506L857.425 -369Z" fill="url(#paint2_linear_70_1075)"/>
<path d="M143.357 -369H-115L143.357 71.4123V-369Z" fill="#931813"/>
<path d="M302.384 342.506L143.357 71.4124V613.6L302.384 342.506Z" fill="#B12638"/>
<path d="M143.357 71.4123L-115 -369V1054L143.357 613.6V71.4123Z" fill="#942331"/>
<path d="M424.067 -369L326.807 342.506L428.198 1054L698.072 342.506L424.067 -369Z" fill="#D51317"/>
</g>
</g>
<defs>
<linearGradient id="paint0_linear_70_1075" x1="-115" y1="342.5" x2="3243" y2="342.5" gradientUnits="userSpaceOnUse">
<stop stop-color="#942331"/>
<stop offset="0.0361" stop-color="#931813"/>
<stop offset="0.0846" stop-color="#B12638"/>
<stop offset="0.1237" stop-color="#AF1917"/>
<stop offset="0.1257" stop-color="#B11917"/>
<stop offset="0.1533" stop-color="#CB1517"/>
<stop offset="0.1697" stop-color="#D51317"/>
<stop offset="0.1755" stop-color="#CE1B24"/>
<stop offset="0.1876" stop-color="#BB2742"/>
<stop offset="0.205" stop-color="#9B326B"/>
<stop offset="0.2142" stop-color="#88357F"/>
<stop offset="0.2436" stop-color="#853580"/>
<stop offset="0.2638" stop-color="#6E368C"/>
<stop offset="0.2911" stop-color="#3A4190"/>
<stop offset="0.3242" stop-color="#14387F"/>
<stop offset="0.3926" stop-color="#2B2F75"/>
<stop offset="0.4181" stop-color="#312A6F"/>
<stop offset="0.4756" stop-color="#2A3281"/>
<stop offset="0.494" stop-color="#283587"/>
<stop offset="0.5581" stop-color="#1D61A1"/>
<stop offset="0.5667" stop-color="#2169A5"/>
<stop offset="0.6085" stop-color="#3D8FB6"/>
<stop offset="0.6393" stop-color="#53A7BE"/>
<stop offset="0.6556" stop-color="#5BB0C0"/>
<stop offset="0.6748" stop-color="#53ADBE"/>
<stop offset="0.6993" stop-color="#36A3BA"/>
<stop offset="0.7266" stop-color="#0095B3"/>
<stop offset="0.7426" stop-color="#008BAE"/>
<stop offset="0.798" stop-color="#009490"/>
<stop offset="0.8875" stop-color="#00A24C"/>
<stop offset="1" stop-color="#00937D"/>
</linearGradient>
<linearGradient id="paint1_linear_70_1075" x1="842.224" y1="698.256" x2="428.199" y2="698.256" gradientUnits="userSpaceOnUse">
<stop stop-color="#88357F"/>
<stop offset="0.3354" stop-color="#88357F"/>
<stop offset="0.5997" stop-color="#8B2E64"/>
<stop offset="0.871" stop-color="#8E284A"/>
<stop offset="1" stop-color="#8F2540"/>
</linearGradient>
<linearGradient id="paint2_linear_70_1075" x1="860.74" y1="-13.2466" x2="412.852" y2="-13.2466" gradientUnits="userSpaceOnUse">
<stop stop-color="#88357F"/>
<stop offset="0.3354" stop-color="#88357F"/>
<stop offset="0.5997" stop-color="#8B2E64"/>
<stop offset="0.871" stop-color="#8E284A"/>
<stop offset="1" stop-color="#8F2540"/>
</linearGradient>
<clipPath id="clip0_70_1075">
<rect width="450" height="549" fill="white"/>
</clipPath>
</defs>
</svg>
