<svg width="450" height="549" viewBox="0 0 450 549" fill="none" xmlns="http://www.w3.org/2000/svg">
<g clip-path="url(#clip0_70_1046)">
<mask id="mask0_70_1046" style="mask-type:alpha" maskUnits="userSpaceOnUse" x="0" y="0" width="450" height="549">
<rect x="0.5" y="0.5" width="449" height="548" fill="white" stroke="black"/>
</mask>
<g mask="url(#mask0_70_1046)">
<path d="M1527 -369H-1831V1054H1527V-369Z" fill="url(#paint0_linear_70_1046)"/>
<path d="M536.263 327.547C509.635 152.673 482.107 -28.1394 474.967 -174.703C469.827 -279.922 476.631 -316.014 483.21 -369H290.455C297.546 -182.565 283.481 26.9855 258.151 377.529C243.547 579.642 220.978 890.712 225.488 1054H606.593C613.35 832.986 575.477 585.009 536.263 327.547Z" fill="url(#paint1_linear_70_1046)"/>
<path d="M-168.279 -369L-86.1211 342.506L-168.279 1054H94.1724L94.4358 -369H-168.279Z" fill="url(#paint2_linear_70_1046)"/>
<path d="M258.149 377.529C283.478 26.9855 297.543 -182.565 290.453 -369H94.4358L94.1724 1054H225.488C220.976 890.712 243.544 579.642 258.149 377.529Z" fill="url(#paint3_linear_70_1046)"/>
</g>
</g>
<defs>
<linearGradient id="paint0_linear_70_1046" x1="-1831" y1="342.5" x2="1527" y2="342.5" gradientUnits="userSpaceOnUse">
<stop stop-color="#942331"/>
<stop offset="0.0361" stop-color="#931813"/>
<stop offset="0.0846" stop-color="#B12638"/>
<stop offset="0.1237" stop-color="#AF1917"/>
<stop offset="0.1257" stop-color="#B11917"/>
<stop offset="0.1533" stop-color="#CB1517"/>
<stop offset="0.1697" stop-color="#D51317"/>
<stop offset="0.1755" stop-color="#CE1B24"/>
<stop offset="0.1876" stop-color="#BB2742"/>
<stop offset="0.205" stop-color="#9B326B"/>
<stop offset="0.2142" stop-color="#88357F"/>
<stop offset="0.2436" stop-color="#853580"/>
<stop offset="0.2638" stop-color="#6E368C"/>
<stop offset="0.2911" stop-color="#3A4190"/>
<stop offset="0.3242" stop-color="#14387F"/>
<stop offset="0.3926" stop-color="#2B2F75"/>
<stop offset="0.4181" stop-color="#312A6F"/>
<stop offset="0.4756" stop-color="#2A3281"/>
<stop offset="0.494" stop-color="#283587"/>
<stop offset="0.5581" stop-color="#1D61A1"/>
<stop offset="0.5667" stop-color="#2169A5"/>
<stop offset="0.6085" stop-color="#3D8FB6"/>
<stop offset="0.6393" stop-color="#53A7BE"/>
<stop offset="0.6556" stop-color="#5BB0C0"/>
<stop offset="0.6748" stop-color="#53ADBE"/>
<stop offset="0.6993" stop-color="#36A3BA"/>
<stop offset="0.7266" stop-color="#0095B3"/>
<stop offset="0.7426" stop-color="#008BAE"/>
<stop offset="0.798" stop-color="#009490"/>
<stop offset="0.8875" stop-color="#00A24C"/>
<stop offset="1" stop-color="#00937D"/>
</linearGradient>
<linearGradient id="paint1_linear_70_1046" x1="172.174" y1="-337.311" x2="549.064" y2="1069.41" gradientUnits="userSpaceOnUse">
<stop stop-color="#009AD2"/>
<stop offset="0.3786" stop-color="#19A1CD"/>
<stop offset="1" stop-color="#5BB0C0"/>
</linearGradient>
<linearGradient id="paint2_linear_70_1046" x1="-36.9213" y1="-369" x2="-36.9213" y2="1054" gradientUnits="userSpaceOnUse">
<stop stop-color="#174290"/>
<stop offset="0.2651" stop-color="#1C4D98"/>
<stop offset="0.8022" stop-color="#2A6DAF"/>
<stop offset="1" stop-color="#327AB9"/>
</linearGradient>
<linearGradient id="paint3_linear_70_1046" x1="193.228" y1="1054" x2="193.228" y2="-369" gradientUnits="userSpaceOnUse">
<stop stop-color="#3E9AC9"/>
<stop offset="1" stop-color="#1D61A1"/>
</linearGradient>
<clipPath id="clip0_70_1046">
<rect width="450" height="549" fill="white"/>
</clipPath>
</defs>
</svg>
